name Walk3.mot
datacolumns 19
datarows 20
range 1.01500000 1.03400000
endheader

                time	   L_ground_force_vx	   L_ground_force_vy	   L_ground_force_vz	   L_ground_force_px	   L_ground_force_py	   L_ground_force_pz	   R_ground_force_vx	   R_ground_force_vy	   R_ground_force_vz	   R_ground_force_px	   R_ground_force_py	   R_ground_force_pz	   L_ground_torque_x	   L_ground_torque_y	   L_ground_torque_z	   R_ground_torque_x	   R_ground_torque_y	   R_ground_torque_z	
          1.01500000	         43.99215312	        496.70304451	         38.71819712	         -0.35888281	          0.00000000	         -0.04973489	         -0.08292794	          0.45461713	          0.00962620	          0.00000922	          0.00000000	         -0.00001853	          0.00000000	         -0.15532448	          0.00000000	          0.00000000	          0.01422430	          0.00000000	
          1.01600000	         44.84955421	        499.60930919	         38.95310721	         -0.35879782	          0.00000000	         -0.04969139	         -0.08264413	          0.38990576	          0.00255049	         -0.00003009	          0.00000000	         -0.00003651	          0.00000000	         -0.16377371	          0.00000000	          0.00000000	          0.01467737	          0.00000000	
          1.01700000	         45.71526847	        502.50385117	         39.18008819	         -0.35871144	          0.00000000	         -0.04964586	         -0.08199263	          0.31757080	         -0.00519326	         -0.00007293	          0.00000000	         -0.00005600	          0.00000000	         -0.17249244	          0.00000000	          0.00000000	          0.01511193	          0.00000000	
          1.01800000	         46.58925504	        505.38531629	         39.39882951	         -0.35862365	          0.00000000	         -0.04959824	         -0.08094197	          0.23720258	         -0.01363516	         -0.00011945	          0.00000000	         -0.00007707	          0.00000000	         -0.18148317	          0.00000000	          0.00000000	          0.01552445	          0.00000000	
          1.01900000	         47.47147111	        508.25234601	         39.60902804	         -0.35853444	          0.00000000	         -0.04954851	         -0.07945940	          0.14838651	         -0.02280521	         -0.00016981	          0.00000000	         -0.00009979	          0.00000000	         -0.19074590	          0.00000000	          0.00000000	          0.01591120	          0.00000000	
          1.02000000	         48.36187008	        511.10358057	         39.81039042	         -0.35844379	          0.00000000	         -0.04949660	         -0.07751089	          0.05070438	         -0.03273320	         -0.00022413	          0.00000000	         -0.00012420	          0.00000000	         -0.20027866	          0.00000000	          0.00000000	          0.01626817	          0.00000000	
          1.02100000	         49.26040034	        513.93766162	         40.00263548	         -0.35835168	          0.00000000	         -0.04944250	         -0.07506121	         -0.05626427	         -0.04344857	         -0.00028259	          0.00000000	         -0.00015037	          0.00000000	         -0.21007862	          0.00000000	          0.00000000	          0.01659113	          0.00000000	
          1.02200000	         50.16700470	        516.75323392	         40.18549589	         -0.35825810	          0.00000000	         -0.04938615	         -0.07207390	         -0.17294062	         -0.05498022	         -0.00034530	          0.00000000	         -0.00017835	          0.00000000	         -0.22014320	          0.00000000	          0.00000000	          0.01687558	          0.00000000	
          1.02300000	         51.08161989	        519.54894640	         40.35871844	         -0.35816302	          0.00000000	         -0.04932753	         -0.06851133	         -0.29974489	         -0.06735639	         -0.00041242	          0.00000000	         -0.00020819	          0.00000000	         -0.23047067	          0.00000000	          0.00000000	          0.01711676	          0.00000000	
          1.02400000	         52.00417588	        522.32345250	         40.52206332	         -0.35806644	          0.00000000	         -0.04926660	         -0.06433476	         -0.43709454	         -0.08060444	         -0.00048407	          0.00000000	         -0.00023994	          0.00000000	         -0.24106021	          0.00000000	          0.00000000	          0.01730967	          0.00000000	
          1.02500000	         52.93459455	        525.07540995	         40.67530269	         -0.35796834	          0.00000000	         -0.04920332	         -0.05950439	         -0.58540225	         -0.09475068	         -0.00056038	          0.00000000	         -0.00027366	          0.00000000	         -0.25191131	          0.00000000	          0.00000000	          0.01744902	          0.00000000	
          1.02600000	         53.87278787	        527.80347976	         40.81821934	         -0.35786869	          0.00000000	         -0.04913768	         -0.05397941	         -0.74507380	         -0.10982015	         -0.00064147	          0.00000000	         -0.00030938	          0.00000000	         -0.26302310	          0.00000000	          0.00000000	          0.01752925	          0.00000000	
          1.02700000	         54.81865556	        530.50632467	         40.95060575	         -0.35776748	          0.00000000	         -0.04906967	         -0.04771809	         -0.91650574	         -0.12583639	         -0.00072744	          0.00000000	         -0.00034714	          0.00000000	         -0.27439353	          0.00000000	          0.00000000	          0.01754454	          0.00000000	
          1.02800000	         55.77208251	        533.18260715	         41.07226362	         -0.35766467	          0.00000000	         -0.04899927	         -0.04067787	         -1.10008292	         -0.14282126	         -0.00081840	          0.00000000	         -0.00038697	          0.00000000	         -0.28601882	          0.00000000	          0.00000000	          0.01748880	          0.00000000	
          1.02900000	         56.73293651	        535.83098739	         41.18300426	         -0.35756027	          0.00000000	         -0.04892650	         -0.03281544	         -1.29617578	         -0.16079461	         -0.00091443	          0.00000000	         -0.00042891	          0.00000000	         -0.29789325	          0.00000000	          0.00000000	          0.01735565	          0.00000000	
          1.03000000	         57.70106667	        538.45012119	         41.28264929	         -0.35745424	          0.00000000	         -0.04885135	         -0.02408686	         -1.50513748	         -0.17977406	         -0.00101561	          0.00000000	         -0.00047297	          0.00000000	         -0.31000933	          0.00000000	          0.00000000	          0.01713845	          0.00000000	
          1.03100000	         58.67630279	        541.03865812	         41.37103174	         -0.35734659	          0.00000000	         -0.04877385	         -0.01444771	         -1.72730088	         -0.19977473	         -0.00112199	          0.00000000	         -0.00051918	          0.00000000	         -0.32235853	          0.00000000	          0.00000000	          0.01683029	          0.00000000	
          1.03200000	         59.65845537	        543.59523988	         41.44799668	         -0.35723728	          0.00000000	         -0.04869402	         -0.00385317	         -1.96297522	         -0.22080891	         -0.00123363	          0.00000000	         -0.00056753	          0.00000000	         -0.33493208	          0.00000000	          0.00000000	          0.01642398	          0.00000000	
          1.03300000	         60.64731585	        546.11849901	         41.51340134	         -0.35712633	          0.00000000	         -0.04861186	          0.00774178	         -2.21244269	         -0.24288577	         -0.00135055	          0.00000000	         -0.00061804	          0.00000000	         -0.34772174	          0.00000000	          0.00000000	          0.01591209	          0.00000000	
          1.03400000	         61.64265673	        548.60705817	         41.56711443	         -0.35701371	          0.00000000	         -0.04852739	          0.02038222	         -2.47595476	         -0.26601103	         -0.00147275	          0.00000000	         -0.00067068	          0.00000000	         -0.36072029	          0.00000000	          0.00000000	          0.01528691	          0.00000000	
